<?xml version="1.0" encoding="UTF-8" standalone="no"?>
<!-- Created with Inkscape (http://www.inkscape.org/) -->

<svg
   width="500"
   height="500"
   viewBox="0 0 500 500"
   version="1.1"
   id="SVGRoot"
   sodipodi:docname="C:\Users\ALEXJU~1\AppData\Local\Temp\ink_ext_XXXXXX.svg6KD6Y1"
   xml:space="preserve"
   inkscape:export-filename="setaEsquerda.svg"
   inkscape:export-xdpi="96"
   inkscape:export-ydpi="96"
   xmlns:inkscape="http://www.inkscape.org/namespaces/inkscape"
   xmlns:sodipodi="http://sodipodi.sourceforge.net/DTD/sodipodi-0.dtd"
   xmlns="http://www.w3.org/2000/svg"
   xmlns:svg="http://www.w3.org/2000/svg"><sodipodi:namedview
     id="namedview691"
     pagecolor="#505050"
     bordercolor="#eeeeee"
     borderopacity="1"
     inkscape:showpageshadow="0"
     inkscape:pageopacity="0"
     inkscape:pagecheckerboard="0"
     inkscape:deskcolor="#505050"
     inkscape:document-units="px"
     showgrid="false"
     inkscape:zoom="0.25"
     inkscape:cx="944.5"
     inkscape:cy="944.5"
     inkscape:window-width="1366"
     inkscape:window-height="745"
     inkscape:window-x="-8"
     inkscape:window-y="-8"
     inkscape:window-maximized="0"
     inkscape:current-layer="layer1" /><defs
     id="defs686" /><g
     id="g2290"><g
       id="g2277"
       transform="matrix(14.990998,0,0,14.994561,10.371029,10.419854)"><path
         clip-rule="evenodd"
         d="M 31.7,15.219 16.756,0.275 c -0.202,-0.202 -0.467,-0.301 -0.731,-0.299 -0.008,0 -0.014,-0.004 -0.022,-0.004 h -15 c -0.552,0 -1,0.448 -1,1 0,0.008 0.004,0.014 0.004,0.022 -0.001,0.264 0.098,0.529 0.299,0.731 L 14.552,15.971 0.276,30.247 c -0.401,0.401 -0.401,1.051 0,1.452 0.238,0.238 0.561,0.317 0.87,0.273 h 14.711 c 0.309,0.044 0.632,-0.035 0.87,-0.273 L 31.699,16.727 c 0.208,-0.208 0.303,-0.482 0.295,-0.755 0.008,-0.271 -0.087,-0.545 -0.294,-0.753 z M 15.551,29.972 H 3.455 L 16.699,16.728 c 0.208,-0.208 0.303,-0.482 0.295,-0.755 0.008,-0.272 -0.087,-0.546 -0.295,-0.754 L 3.453,1.972 h 12.101 l 13.999,13.999 z"
         fill="#121313"
         fill-rule="evenodd"
         id="Border_Arrow_Right" /><g
         id="g2253" /><g
         id="g2255" /><g
         id="g2257" /><g
         id="g2259" /><g
         id="g2261" /><g
         id="g2263" /></g><path
       style="fill:#121313;fill-opacity:1"
       d="m 33.629609,25.664702 c 0,0 215.937491,-11.504867 219.477451,-5.309939 3.53996,6.194928 215.93749,229.212337 215.93749,229.212337 L 243.37217,480.54941 25.664702,473.4695 243.37217,249.5671 Z"
       id="path2279" /></g></svg>
