<?xml version="1.0" encoding="UTF-8" standalone="no"?>
<!-- Created with Inkscape (http://www.inkscape.org/) -->

<svg
   width="500"
   height="500"
   viewBox="0 0 500 500"
   version="1.1"
   id="SVGRoot"
   sodipodi:docname="C:\Users\ALEXJU~1\AppData\Local\Temp\ink_ext_XXXXXX.svg6KD6Y1"
   xml:space="preserve"
   inkscape:export-filename="setaDireita.svg"
   inkscape:export-xdpi="96"
   inkscape:export-ydpi="96"
   xmlns:inkscape="http://www.inkscape.org/namespaces/inkscape"
   xmlns:sodipodi="http://sodipodi.sourceforge.net/DTD/sodipodi-0.dtd"
   xmlns="http://www.w3.org/2000/svg"
   xmlns:svg="http://www.w3.org/2000/svg"><sodipodi:namedview
     id="namedview691"
     pagecolor="#505050"
     bordercolor="#eeeeee"
     borderopacity="1"
     inkscape:showpageshadow="0"
     inkscape:pageopacity="0"
     inkscape:pagecheckerboard="0"
     inkscape:deskcolor="#505050"
     inkscape:document-units="px"
     showgrid="false"
     inkscape:zoom="0.25"
     inkscape:cx="944.5"
     inkscape:cy="944.5"
     inkscape:window-width="1366"
     inkscape:window-height="745"
     inkscape:window-x="-8"
     inkscape:window-y="-8"
     inkscape:window-maximized="0"
     inkscape:current-layer="layer1" /><defs
     id="defs686" /><g
     id="g2375"><g
       id="g2362"
       transform="matrix(14.994093,0,0,14.99053,9.9400236,10.231835)"><path
         clip-rule="evenodd"
         d="M 15.251,0.279 0.307,15.223 c -0.202,0.202 -0.301,0.467 -0.299,0.731 0,0.008 -0.004,0.014 -0.004,0.022 v 15 c 0,0.552 0.448,1 1,1 0.008,0 0.014,-0.004 0.022,-0.004 0.264,0.002 0.529,-0.097 0.731,-0.299 L 16.003,17.427 30.28,31.704 c 0.401,0.401 1.051,0.401 1.452,0 0.238,-0.238 0.317,-0.561 0.273,-0.87 V 16.122 C 32.049,15.813 31.97,15.49 31.732,15.252 L 16.76,0.28 C 16.552,0.072 16.278,-0.023 16.005,-0.015 15.733,-0.023 15.459,0.072 15.251,0.279 Z M 30.004,16.428 V 28.524 L 16.76,15.28 c -0.208,-0.208 -0.482,-0.303 -0.755,-0.295 -0.272,-0.008 -0.546,0.087 -0.754,0.295 L 2.004,28.526 V 16.425 L 16.003,2.427 Z"
         fill="#121313"
         fill-rule="evenodd"
         id="Border_Arrow_Up" /><g
         id="g2338" /><g
         id="g2340" /><g
         id="g2342" /><g
         id="g2344" /><g
         id="g2346" /><g
         id="g2348" /></g><path
       style="fill:#121313;fill-opacity:1"
       d="m 27.434681,247.79712 3.539959,218.59246 218.59246,-215.0525 220.36244,212.39753 4.42495,-220.36244 c 0,0 -216.82248,-221.247427 -220.36244,-219.477448 C 250.45209,25.664702 27.434681,247.79712 27.434681,247.79712 Z"
       id="path2364" /></g></svg>
