<?xml version="1.0" encoding="UTF-8" standalone="no"?>
<!-- Created with Inkscape (http://www.inkscape.org/) -->

<svg
   width="500"
   height="500"
   viewBox="0 0 500 500"
   version="1.1"
   id="SVGRoot"
   sodipodi:docname="C:\Users\ALEXJU~1\AppData\Local\Temp\ink_ext_XXXXXX.svg6KD6Y1"
   xml:space="preserve"
   inkscape:export-filename="setaBaixo.svg"
   inkscape:export-xdpi="96"
   inkscape:export-ydpi="96"
   xmlns:inkscape="http://www.inkscape.org/namespaces/inkscape"
   xmlns:sodipodi="http://sodipodi.sourceforge.net/DTD/sodipodi-0.dtd"
   xmlns="http://www.w3.org/2000/svg"
   xmlns:svg="http://www.w3.org/2000/svg"><sodipodi:namedview
     id="namedview691"
     pagecolor="#505050"
     bordercolor="#eeeeee"
     borderopacity="1"
     inkscape:showpageshadow="0"
     inkscape:pageopacity="0"
     inkscape:pagecheckerboard="0"
     inkscape:deskcolor="#505050"
     inkscape:document-units="px"
     showgrid="false"
     inkscape:zoom="0.25"
     inkscape:cx="944.5"
     inkscape:cy="944.5"
     inkscape:window-width="1366"
     inkscape:window-height="745"
     inkscape:window-x="-8"
     inkscape:window-y="-8"
     inkscape:window-maximized="0"
     inkscape:current-layer="layer1" /><defs
     id="defs686" /><g
     id="g2195"
     transform="matrix(14.990996,0,0,14.994561,10.052018,10.23402)"><path
       clip-rule="evenodd"
       d="m 0.291,16.749 14.944,14.944 c 0.202,0.202 0.467,0.301 0.731,0.299 0.008,0 0.014,0.004 0.022,0.004 h 15 c 0.552,0 1,-0.448 1,-1 0,-0.008 -0.004,-0.014 -0.004,-0.022 0.002,-0.264 -0.097,-0.529 -0.299,-0.731 L 17.438,15.997 31.715,1.721 c 0.401,-0.401 0.401,-1.051 0,-1.452 -0.238,-0.238 -0.561,-0.317 -0.87,-0.273 H 16.134 c -0.309,-0.044 -0.632,0.035 -0.87,0.273 L 0.292,15.24 c -0.208,0.208 -0.303,0.482 -0.295,0.755 -0.008,0.272 0.086,0.546 0.294,0.754 z M 16.44,1.996 H 28.536 L 15.292,15.24 c -0.208,0.208 -0.303,0.482 -0.295,0.755 -0.008,0.272 0.087,0.546 0.295,0.754 L 28.539,29.996 H 16.437 L 2.438,15.997 Z"
       fill="#121313"
       fill-rule="evenodd"
       id="Border_Arrow_Left" /><g
       id="g2171" /><g
       id="g2173" /><g
       id="g2175" /><g
       id="g2177" /><g
       id="g2179" /><g
       id="g2181" /></g><path
     style="fill:#121313;fill-opacity:1"
     d="M 32.475954,246.20196 247.60963,468.98483 c 0,0 219.91442,9.56149 219.91442,5.73689 0,-3.82459 -215.13367,-225.65131 -215.13367,-225.65131 L 464.6556,27.243693 247.60963,24.375244 Z"
     id="path2197" /></svg>
