<?xml version="1.0" encoding="UTF-8" standalone="no"?>
<!-- Created with Inkscape (http://www.inkscape.org/) -->

<svg
   width="500"
   height="500"
   viewBox="0 0 500 500"
   version="1.1"
   id="SVGRoot"
   sodipodi:docname="C:\Users\ALEXJU~1\AppData\Local\Temp\ink_ext_XXXXXX.svg6KD6Y1"
   xml:space="preserve"
   inkscape:export-filename="setaLeft.svg"
   inkscape:export-xdpi="96"
   inkscape:export-ydpi="96"
   xmlns:inkscape="http://www.inkscape.org/namespaces/inkscape"
   xmlns:sodipodi="http://sodipodi.sourceforge.net/DTD/sodipodi-0.dtd"
   xmlns="http://www.w3.org/2000/svg"
   xmlns:svg="http://www.w3.org/2000/svg"><sodipodi:namedview
     id="namedview691"
     pagecolor="#505050"
     bordercolor="#eeeeee"
     borderopacity="1"
     inkscape:showpageshadow="0"
     inkscape:pageopacity="0"
     inkscape:pagecheckerboard="0"
     inkscape:deskcolor="#505050"
     inkscape:document-units="px"
     showgrid="false"
     inkscape:zoom="0.25"
     inkscape:cx="944.5"
     inkscape:cy="944.5"
     inkscape:window-width="1366"
     inkscape:window-height="745"
     inkscape:window-x="-8"
     inkscape:window-y="-8"
     inkscape:window-maximized="0"
     inkscape:current-layer="layer1" /><defs
     id="defs686" /><g
     id="g2123"><g
       id="g2110"
       transform="matrix(14.994093,0,0,14.990996,13.532799,10.296072)"><path
         clip-rule="evenodd"
         d="M 16.765,31.705 31.709,16.761 c 0.202,-0.202 0.301,-0.467 0.299,-0.731 0,-0.008 0.004,-0.014 0.004,-0.022 v -15 c 0,-0.552 -0.448,-1 -1,-1 -0.008,0 -0.014,0.004 -0.022,0.004 C 30.726,0.01 30.461,0.109 30.259,0.311 L 16.013,14.558 1.736,0.281 C 1.335,-0.12 0.685,-0.12 0.284,0.281 0.046,0.519 -0.033,0.842 0.011,1.151 v 14.711 c -0.044,0.309 0.035,0.632 0.273,0.87 l 14.972,14.972 c 0.208,0.208 0.482,0.303 0.755,0.295 0.272,0.008 0.546,-0.086 0.754,-0.294 z M 2.012,15.556 V 3.46 l 13.244,13.244 c 0.208,0.208 0.482,0.303 0.755,0.295 0.272,0.008 0.546,-0.087 0.754,-0.295 L 30.012,3.458 V 15.559 L 16.013,29.558 Z"
         fill="#121313"
         fill-rule="evenodd"
         id="Border_Arrow_Down" /><g
         id="g2086" /><g
         id="g2088" /><g
         id="g2090" /><g
         id="g2092" /><g
         id="g2094" /><g
         id="g2096" /></g><path
       style="fill:#121313;fill-opacity:1"
       d="M 37.289836,32.509088 247.64276,241.90586 476.16252,27.72834 479.98712,245.73046 259.11655,470.42563 28.684489,250.51121 Z"
       id="path2112" /></g></svg>
